<svg xmlns="http://www.w3.org/2000/svg" version="1.1" xmlns:xlink="http://www.w3.org/1999/xlink" xmlns:svgjs="http://svgjs.dev/svgjs" viewBox="0 0 11.504470120714014 7.800840090957344"><g transform="matrix(1,0,0,1,0.7864651018609141,4.92711034065893)"><rect width="11.504470120714014" height="7.800840090957344" x="-0.7864651018609141" y="-4.92711034065893" fill="#ffffff"></rect><g><path d=" M 1.055003356933593 0.017578125000000222 L 1.630686950683593 0.017578125000000222 Q 1.752268981933593 0.017578125000000222 1.843455505371093 0.03808593750000022 Q 1.934642028808593 0.05859375000000022 1.995799255371093 0.09631347656250022 Q 2.056956481933593 0.13403320312500022 2.087718200683593 0.18713378906250022 Q 2.118479919433593 0.24023437500000022 2.118479919433593 0.3054199218750002 Q 2.118479919433593 0.3706054687500002 2.082225036621093 0.4281005859375002 Q 2.045970153808593 0.4855957031250002 1.976390075683593 0.5273437500000002 Q 2.090647888183593 0.5603027343750002 2.147044372558593 0.6240234375000002 Q 2.203440856933593 0.6877441406250002 2.203440856933593 0.7800292968750002 Q 2.203440856933593 0.8430175781250002 2.173045349121093 0.9016113281250002 Q 2.142649841308593 0.9602050781250002 2.082225036621093 1.0056152343750002 Q 2.021800231933593 1.0510253906250002 1.930979919433593 1.0784912109375002 Q 1.840159606933593 1.1059570312500002 1.718577575683593 1.1059570312500002 L 1.055003356933593 1.1059570312500002 L 1.055003356933593 0.017578125000000222 Z M 1.523753356933593 0.4599609375000002 Q 1.583811950683593 0.4599609375000002 1.624827575683593 0.4486083984375002 Q 1.665843200683593 0.4372558593750002 1.690379333496093 0.4174804687500002 Q 1.714915466308593 0.3977050781250002 1.725535583496093 0.3720703125000002 Q 1.736155700683593 0.3464355468750002 1.736155700683593 0.3186035156250002 Q 1.736155700683593 0.2907714843750002 1.725535583496093 0.2651367187500002 Q 1.714915466308593 0.23950195312500022 1.690379333496093 0.22009277343750022 Q 1.665843200683593 0.20068359375000022 1.624827575683593 0.18896484375000022 Q 1.583811950683593 0.17724609375000022 1.523753356933593 0.17724609375000022 L 1.479075622558593 0.17724609375000022 L 1.478343200683593 0.4599609375000002 L 1.523753356933593 0.4599609375000002 Z M 1.523753356933593 0.9462890625000002 Q 1.588938903808593 0.9462890625000002 1.633616638183593 0.9323730468750002 Q 1.678294372558593 0.9184570312500002 1.706126403808593 0.8942871093750002 Q 1.733958435058593 0.8701171875000002 1.746409606933593 0.8375244140625002 Q 1.758860778808593 0.8049316406250002 1.758860778808593 0.7675781250000002 Q 1.758860778808593 0.7346191406250002 1.745677185058593 0.7031250000000002 Q 1.732493591308593 0.6716308593750002 1.706492614746093 0.6470947265625002 Q 1.680491638183593 0.6225585937500002 1.642405700683593 0.6075439453125002 Q 1.604319763183593 0.5925292968750002 1.554515075683593 0.5925292968750002 L 1.478343200683593 0.5925292968750002 L 1.478343200683593 0.9462890625000002 L 1.523753356933593 0.9462890625000002 Z M 2.412913513183593 0.017578125000000222 L 3.332835388183593 0.017578125000000222 L 3.332835388183593 0.18530273437500022 L 2.836985778808593 0.18530273437500022 L 2.836253356933593 0.4790039062500002 L 3.215647888183593 0.4790039062500002 L 3.215647888183593 0.6467285156250002 L 2.836253356933593 0.6467285156250002 L 2.836253356933593 0.9382324218750002 L 3.332835388183593 0.9382324218750002 L 3.332835388183593 1.1059570312500002 L 2.412913513183593 1.1059570312500002 L 2.412913513183593 0.017578125000000222 Z M 3.970042419433593 0.17724609375000022 L 3.534983825683593 0.17724609375000022 L 3.534983825683593 0.017578125000000222 L 4.529612731933593 0.017578125000000222 L 4.035960388183593 0.9448242187500002 L 4.487132263183593 0.9448242187500002 L 4.487132263183593 1.1059570312500002 L 3.459544372558593 1.1059570312500002 L 3.970042419433593 0.17724609375000022 Z M 5.129466247558593 0.17724609375000022 L 4.694407653808593 0.17724609375000022 L 4.694407653808593 0.017578125000000222 L 5.689036560058593 0.017578125000000222 L 5.195384216308593 0.9448242187500002 L 5.646556091308593 0.9448242187500002 L 5.646556091308593 1.1059570312500002 L 4.618968200683593 1.1059570312500002 L 5.129466247558593 0.17724609375000022 Z M 5.876536560058593 0.017578125000000222 L 6.300608825683593 0.017578125000000222 L 6.299876403808593 1.1059570312500002 L 5.876536560058593 1.1059570312500002 L 5.876536560058593 0.017578125000000222 Z M 6.586253356933593 0.017578125000000222 L 6.851390075683593 0.017578125000000222 L 7.542063903808593 0.5976562500000002 L 7.542796325683593 0.017578125000000222 L 7.703929138183593 0.017578125000000222 L 7.703929138183593 1.1059570312500002 L 7.438792419433593 1.1059570312500002 L 6.747386169433593 0.5280761718750002 L 6.747386169433593 1.1059570312500002 L 6.586253356933593 1.1059570312500002 L 6.586253356933593 0.017578125000000222 Z M 7.925852966308593 0.5625000000000002 Q 7.925852966308593 0.4848632812500002 7.945994567871093 0.4127197265625002 Q 7.966136169433593 0.3405761718750002 8.004954528808593 0.2783203125000002 Q 8.043772888183593 0.21606445312500022 8.100169372558593 0.16479492187500022 Q 8.156565856933593 0.11352539062500022 8.228709411621093 0.07690429687500022 Q 8.300852966308593 0.04028320312500022 8.388011169433593 0.020141601562500222 Q 8.475169372558593 2.220446049250313e-16 8.575511169433593 2.220446049250313e-16 Q 8.639964294433593 2.220446049250313e-16 8.698924255371093 0.008056640625000222 Q 8.757884216308593 0.016113281250000222 8.809886169433593 0.030395507812500222 Q 8.861888122558593 0.04467773437500022 8.906199645996093 0.06335449218750022 Q 8.950511169433593 0.08203125000000022 8.986399841308593 0.10253906250000022 L 8.923411560058593 0.22558593750000022 Q 8.882395935058593 0.20581054687500022 8.830027770996093 0.19226074218750022 Q 8.777659606933593 0.17871093750000022 8.721263122558593 0.17871093750000022 Q 8.645823669433593 0.17871093750000022 8.581370544433593 0.20581054687500022 Q 8.516917419433593 0.23291015625000022 8.470042419433593 0.2827148437500002 Q 8.423167419433593 0.3325195312500002 8.396434020996093 0.4031982421875002 Q 8.369700622558593 0.4738769531250002 8.369700622558593 0.5617675781250002 Q 8.369700622558593 0.6489257812500002 8.396067810058593 0.7196044921875002 Q 8.422434997558593 0.7902832031250002 8.468943786621093 0.8404541015625002 Q 8.515452575683593 0.8906250000000002 8.579539489746093 0.9180908203125002 Q 8.643626403808593 0.9455566406250002 8.718333435058593 0.9455566406250002 Q 8.771067810058593 0.9455566406250002 8.823802185058593 0.9327392578125002 Q 8.876536560058593 0.9199218750000002 8.920481872558593 0.8986816406250002 L 8.983470153808593 1.0217285156250002 Q 8.947581481933593 1.0429687500000002 8.903636169433593 1.0612792968750002 Q 8.859690856933593 1.0795898437500002 8.808421325683593 1.0938720703125002 Q 8.757151794433593 1.1081542968750002 8.698558044433593 1.1162109375000002 Q 8.639964294433593 1.1242675781250002 8.575511169433593 1.1242675781250002 Q 8.425364685058593 1.1242675781250002 8.304881286621093 1.0799560546875002 Q 8.184397888183593 1.0356445312500002 8.100169372558593 0.9591064453125002 Q 8.015940856933593 0.8825683593750002 7.970896911621093 0.7803955078125002 Q 7.925852966308593 0.6782226562500002 7.925852966308593 0.5625000000000002 Z" fill="#000000" fill-rule="nonzero"></path></g><g><path d=" M 0.46725 1.9455146484374997 Q 0.46725 1.9852646484374998 0.447 2.0163896484375 Q 0.42675 2.0475146484374998 0.392625 2.0651396484374995 Q 0.3585 2.0827646484374998 0.318 2.0827646484374998 L 0.06675 2.0827646484374998 L 0.06675 1.5502646484374998 L 0.32325 1.5502646484374998 Q 0.36075 1.5502646484374998 0.388125 1.5701396484374999 Q 0.41550000000000004 1.5900146484374997 0.43012500000000004 1.6211396484374998 Q 0.44475000000000003 1.6522646484374999 0.44475000000000003 1.6860146484374998 Q 0.44475000000000003 1.7257646484374998 0.4245 1.7595146484374997 Q 0.40425 1.7932646484374999 0.36825 1.8097646484374996 Q 0.41400000000000003 1.8232646484374997 0.440625 1.8600146484374998 Q 0.46725 1.8967646484374998 0.46725 1.9455146484374997 Z M 0.41475 1.9365146484374998 Q 0.41475 1.9095146484374999 0.40275 1.8866396484374999 Q 0.39075 1.8637646484374997 0.370125 1.8495146484374998 Q 0.34950000000000003 1.8352646484374997 0.32325 1.8352646484374997 L 0.11925000000000001 1.8352646484374997 L 0.11925000000000001 2.0370146484375 L 0.318 2.0370146484375 Q 0.34500000000000003 2.0370146484375 0.36675 2.0227646484374997 Q 0.3885 2.0085146484374996 0.401625 1.9856396484374998 Q 0.41475 1.9627646484374996 0.41475 1.9365146484374998 Z M 0.11925000000000001 1.5960146484374997 L 0.11925000000000001 1.7925146484374999 L 0.30225 1.7925146484374999 Q 0.3285 1.7925146484374999 0.34875 1.7786396484374998 Q 0.369 1.7647646484374997 0.381 1.7422646484374997 Q 0.393 1.7197646484374998 0.393 1.6942646484374997 Q 0.393 1.6672646484374998 0.38175000000000003 1.6451396484374998 Q 0.3705 1.6230146484374997 0.35100000000000003 1.6095146484374998 Q 0.3315 1.5960146484374997 0.30675 1.5960146484374997 L 0.11925000000000001 1.5960146484374997 Z M 0.9314659423828126 2.0362646484374998 L 0.9314659423828126 2.0827646484374998 L 0.5737159423828125 2.0827646484374998 L 0.5737159423828125 1.5502646484374998 L 0.9247159423828126 1.5502646484374998 L 0.9247159423828126 1.5967646484374998 L 0.6262159423828125 1.5967646484374998 L 0.6262159423828125 1.7887646484374997 L 0.8864659423828125 1.7887646484374997 L 0.8864659423828125 1.8330146484374998 L 0.6262159423828125 1.8330146484374998 L 0.6262159423828125 2.0362646484374998 L 0.9314659423828126 2.0362646484374998 Z M 1.2013846435546878 1.8127646484374997 Q 1.2013846435546878 1.7640146484374997 1.2182596435546877 1.7171396484374997 Q 1.2351346435546877 1.6702646484374997 1.2673846435546876 1.6316396484374998 Q 1.2996346435546877 1.5930146484374998 1.3468846435546877 1.5701396484374999 Q 1.3941346435546877 1.5472646484375 1.4541346435546876 1.5472646484375 Q 1.5253846435546876 1.5472646484375 1.5760096435546878 1.5798896484374998 Q 1.6266346435546877 1.6125146484374997 1.6506346435546877 1.6635146484374999 L 1.6093846435546877 1.6890146484374997 Q 1.5921346435546877 1.6537646484374997 1.5658846435546878 1.6331396484374998 Q 1.5396346435546877 1.6125146484374997 1.5100096435546877 1.6035146484374998 Q 1.4803846435546877 1.5945146484374997 1.4511346435546877 1.5945146484374997 Q 1.4031346435546876 1.5945146484374997 1.3663846435546878 1.6136396484374997 Q 1.3296346435546877 1.6327646484374998 1.3045096435546877 1.6646396484374997 Q 1.2793846435546876 1.6965146484374998 1.2666346435546876 1.7358896484374997 Q 1.2538846435546878 1.7752646484374996 1.2538846435546878 1.8157646484374999 Q 1.2538846435546878 1.8600146484374998 1.2688846435546877 1.9005146484374997 Q 1.2838846435546878 1.9410146484374997 1.3108846435546877 1.9721396484374998 Q 1.3378846435546876 2.0032646484375 1.3742596435546877 2.0216396484374997 Q 1.4106346435546877 2.0400146484375 1.4533846435546878 2.0400146484375 Q 1.4833846435546878 2.0400146484375 1.5148846435546877 2.0295146484375 Q 1.5463846435546877 2.0190146484374996 1.5737596435546877 1.9972646484374998 Q 1.6011346435546878 1.9755146484374997 1.6176346435546878 1.9410146484374997 L 1.6611346435546877 1.9635146484374997 Q 1.6446346435546877 2.0032646484375 1.6101346435546877 2.0310146484374996 Q 1.5756346435546877 2.0587646484374997 1.5332596435546877 2.0730146484375 Q 1.4908846435546876 2.0872646484375 1.4503846435546877 2.0872646484375 Q 1.3956346435546876 2.0872646484375 1.3498846435546876 2.0636396484375 Q 1.3041346435546877 2.0400146484375 1.2707596435546877 2.0006396484374998 Q 1.2373846435546878 1.9612646484374998 1.2193846435546878 1.9121396484374997 Q 1.2013846435546878 1.8630146484374999 1.2013846435546878 1.8127646484374997 Z M 1.9753652343750003 2.0865146484375 Q 1.9123652343750002 2.0865146484375 1.8688652343750003 2.0640146484375 Q 1.8253652343750002 2.0415146484375 1.7998652343750003 2.0036396484375 Q 1.7743652343750003 1.9657646484374998 1.7627402343750003 1.9177646484374997 Q 1.7511152343750003 1.8697646484374997 1.7511152343750003 1.8187646484374997 L 1.7511152343750003 1.5502646484374998 L 1.8028652343750002 1.5502646484374998 L 1.8028652343750002 1.8187646484374997 Q 1.8028652343750002 1.8600146484374998 1.8114902343750003 1.8997646484374997 Q 1.8201152343750002 1.9395146484374997 1.8396152343750003 1.9710146484374997 Q 1.8591152343750004 2.0025146484375 1.8921152343750003 2.0208896484374996 Q 1.9251152343750002 2.0392646484375 1.9746152343750003 2.0392646484375 Q 2.0256152343750005 2.0392646484375 2.0589902343750004 2.0201396484374996 Q 2.0923652343750003 2.0010146484374998 2.111490234375 1.9695146484374997 Q 2.1306152343750004 1.9380146484374998 2.1388652343750003 1.8986396484374997 Q 2.147115234375 1.8592646484374997 2.147115234375 1.8187646484374997 L 2.147115234375 1.5502646484374998 L 2.1996152343750004 1.5502646484374998 L 2.1996152343750004 1.8187646484374997 Q 2.1996152343750004 1.8720146484374998 2.1876152343750004 1.9207646484374998 Q 2.1756152343750004 1.9695146484374997 2.1489902343750003 2.0062646484375 Q 2.122365234375 2.0430146484374996 2.0796152343750003 2.0647646484375 Q 2.0368652343750004 2.0865146484375 1.9753652343750003 2.0865146484375 Z M 2.3323231201171875 2.0827646484374998 L 2.3323231201171875 1.5502646484374998 L 2.5573231201171875 1.5502646484374998 Q 2.5918231201171875 1.5502646484374998 2.6203231201171877 1.5645146484374997 Q 2.6488231201171875 1.5787646484374998 2.6701981201171874 1.6031396484374998 Q 2.6915731201171877 1.6275146484374998 2.7031981201171877 1.6571396484374996 Q 2.7148231201171877 1.6867646484374998 2.7148231201171877 1.7175146484374997 Q 2.7148231201171877 1.7557646484374998 2.7001981201171876 1.7895146484374997 Q 2.6855731201171875 1.8232646484374997 2.658948120117188 1.8465146484374997 Q 2.6323231201171877 1.8697646484374997 2.5963231201171877 1.8772646484374997 L 2.7268231201171877 2.0827646484374998 L 2.6675731201171877 2.0827646484374998 L 2.5423231201171874 1.8862646484374999 L 2.3848231201171877 1.8862646484374999 L 2.3848231201171877 2.0827646484374998 L 2.3323231201171875 2.0827646484374998 Z M 2.3848231201171877 1.8397646484374999 L 2.5588231201171876 1.8397646484374999 Q 2.5903231201171875 1.8397646484374999 2.6135731201171875 1.8225146484374997 Q 2.6368231201171874 1.8052646484374997 2.6495731201171875 1.7771396484374997 Q 2.6623231201171875 1.7490146484374998 2.6623231201171875 1.7175146484374997 Q 2.6623231201171875 1.6852646484374998 2.6476981201171874 1.6578896484374996 Q 2.6330731201171877 1.6305146484374997 2.6086981201171877 1.6136396484374997 Q 2.5843231201171877 1.5967646484374998 2.5543231201171874 1.5967646484374998 L 2.3848231201171877 1.5967646484374998 L 2.3848231201171877 1.8397646484374999 Z M 2.8295386962890623 2.0827646484374998 L 2.8295386962890623 1.5502646484374998 L 3.0545386962890624 1.5502646484374998 Q 3.0890386962890624 1.5502646484374998 3.1175386962890625 1.5645146484374997 Q 3.1460386962890623 1.5787646484374998 3.1674136962890627 1.6031396484374998 Q 3.1887886962890626 1.6275146484374998 3.2004136962890626 1.6571396484374996 Q 3.2120386962890626 1.6867646484374998 3.2120386962890626 1.7175146484374997 Q 3.2120386962890626 1.7557646484374998 3.1974136962890625 1.7895146484374997 Q 3.1827886962890624 1.8232646484374997 3.1561636962890622 1.8465146484374997 Q 3.1295386962890626 1.8697646484374997 3.0935386962890625 1.8772646484374997 L 3.2240386962890626 2.0827646484374998 L 3.1647886962890626 2.0827646484374998 L 3.0395386962890623 1.8862646484374999 L 2.8820386962890625 1.8862646484374999 L 2.8820386962890625 2.0827646484374998 L 2.8295386962890623 2.0827646484374998 Z M 2.8820386962890625 1.8397646484374999 L 3.0560386962890624 1.8397646484374999 Q 3.0875386962890623 1.8397646484374999 3.1107886962890623 1.8225146484374997 Q 3.1340386962890623 1.8052646484374997 3.1467886962890623 1.7771396484374997 Q 3.1595386962890624 1.7490146484374998 3.1595386962890624 1.7175146484374997 Q 3.1595386962890624 1.6852646484374998 3.1449136962890623 1.6578896484374996 Q 3.1302886962890626 1.6305146484374997 3.1059136962890626 1.6136396484374997 Q 3.0815386962890625 1.5967646484374998 3.0515386962890623 1.5967646484374998 L 2.8820386962890625 1.5967646484374998 L 2.8820386962890625 1.8397646484374999 Z M 3.6845042724609374 2.0362646484374998 L 3.6845042724609374 2.0827646484374998 L 3.326754272460937 2.0827646484374998 L 3.326754272460937 1.5502646484374998 L 3.677754272460937 1.5502646484374998 L 3.677754272460937 1.5967646484374998 L 3.3792542724609373 1.5967646484374998 L 3.3792542724609373 1.7887646484374997 L 3.6395042724609374 1.7887646484374997 L 3.6395042724609374 1.8330146484374998 L 3.3792542724609373 1.8330146484374998 L 3.3792542724609373 2.0362646484374998 L 3.6845042724609374 2.0362646484374998 Z M 3.8434650878906247 1.6470146484374997 L 3.8434650878906247 2.0827646484374998 L 3.7909650878906245 2.0827646484374998 L 3.7909650878906245 1.5502646484374998 L 3.834465087890625 1.5502646484374998 L 4.183965087890624 1.9942646484374997 L 4.183965087890624 1.5510146484374996 L 4.2364650878906245 1.5510146484374996 L 4.2364650878906245 2.0827646484374998 L 4.187715087890624 2.0827646484374998 L 3.8434650878906247 1.6470146484374997 Z M 4.755444580078125 1.5967646484374998 L 4.565694580078125 1.5967646484374998 L 4.565694580078125 2.0827646484374998 L 4.513194580078125 2.0827646484374998 L 4.513194580078125 1.5967646484374998 L 4.3234445800781245 1.5967646484374998 L 4.3234445800781245 1.5502646484374998 L 4.755444580078125 1.5502646484374998 L 4.755444580078125 1.5967646484374998 Z M 5.193326293945313 1.5540146484374997 L 5.242826293945313 1.5540146484374997 L 5.317826293945313 1.7430146484374998 L 5.393576293945313 1.5540146484374997 L 5.443826293945313 1.5540146484374997 L 5.350826293945313 1.7812646484374999 L 5.4528262939453125 2.0220146484374997 L 5.645576293945313 1.5502646484374998 L 5.702576293945313 1.5502646484374998 L 5.476826293945313 2.0827646484374998 L 5.430326293945313 2.0827646484374998 L 5.318576293945313 1.8195146484374998 L 5.206076293945313 2.0827646484374998 L 5.160326293945313 2.0827646484374998 L 4.935326293945313 1.5502646484374998 L 4.991576293945313 1.5502646484374998 L 5.185076293945313 2.0220146484374997 L 5.286326293945313 1.7812646484374999 L 5.193326293945313 1.5540146484374997 Z M 5.785045898437501 2.0827646484374998 L 5.785045898437501 1.5502646484374998 L 5.837545898437501 1.5502646484374998 L 5.837545898437501 2.0827646484374998 L 5.785045898437501 2.0827646484374998 Z M 6.3565352783203135 1.5967646484374998 L 6.166785278320313 1.5967646484374998 L 6.166785278320313 2.0827646484374998 L 6.114285278320313 2.0827646484374998 L 6.114285278320313 1.5967646484374998 L 5.924535278320313 1.5967646484374998 L 5.924535278320313 1.5502646484374998 L 6.3565352783203135 1.5502646484374998 L 6.3565352783203135 1.5967646484374998 Z M 6.863524291992189 1.5502646484374998 L 6.863524291992189 2.0827646484374998 L 6.811774291992188 2.0827646484374998 L 6.811774291992188 1.8337646484374996 L 6.496024291992189 1.8337646484374996 L 6.496024291992189 2.0827646484374998 L 6.443524291992189 2.0827646484374998 L 6.443524291992189 1.5502646484374998 L 6.496024291992189 1.5502646484374998 L 6.496024291992189 1.7872646484374997 L 6.811774291992188 1.7872646484374997 L 6.811774291992188 1.5502646484374998 L 6.863524291992189 1.5502646484374998 Z M 7.377188598632815 1.5540146484374997 L 7.426688598632815 1.5540146484374997 L 7.501688598632814 1.7430146484374998 L 7.577438598632814 1.5540146484374997 L 7.6276885986328145 1.5540146484374997 L 7.5346885986328145 1.7812646484374999 L 7.636688598632814 2.0220146484374997 L 7.829438598632814 1.5502646484374998 L 7.8864385986328145 1.5502646484374998 L 7.660688598632815 2.0827646484374998 L 7.614188598632815 2.0827646484374998 L 7.502438598632814 1.8195146484374998 L 7.389938598632814 2.0827646484374998 L 7.344188598632814 2.0827646484374998 L 7.119188598632815 1.5502646484374998 L 7.175438598632814 1.5502646484374998 L 7.368938598632814 2.0220146484374997 L 7.470188598632815 1.7812646484374999 L 7.377188598632815 1.5540146484374997 Z M 8.163907470703126 2.0865146484375 Q 8.107657470703128 2.0865146484375 8.061907470703128 2.0640146484375 Q 8.016157470703128 2.0415146484375 7.983157470703127 2.0028896484375 Q 7.950157470703127 1.9642646484374997 7.932157470703127 1.9158896484374996 Q 7.9141574707031275 1.8675146484374998 7.9141574707031275 1.8165146484374999 Q 7.9141574707031275 1.7632646484374996 7.932907470703127 1.7148896484374998 Q 7.951657470703127 1.6665146484374997 7.9857824707031275 1.6286396484374999 Q 8.019907470703128 1.5907646484374998 8.065657470703128 1.5686396484374998 Q 8.111407470703128 1.5465146484374999 8.164657470703126 1.5465146484374999 Q 8.220907470703127 1.5465146484374999 8.266657470703127 1.5697646484374999 Q 8.312407470703127 1.5930146484374998 8.345032470703128 1.6320146484374998 Q 8.377657470703127 1.6710146484374997 8.395657470703128 1.7190146484374997 Q 8.413657470703127 1.7670146484374998 8.413657470703127 1.8172646484374997 Q 8.413657470703127 1.8705146484374997 8.394907470703128 1.9188896484374998 Q 8.376157470703127 1.9672646484374998 8.342407470703128 2.0051396484375 Q 8.308657470703126 2.0430146484374996 8.262907470703126 2.0647646484375 Q 8.217157470703127 2.0865146484375 8.163907470703126 2.0865146484375 Z M 7.966657470703127 1.8165146484374999 Q 7.966657470703127 1.8600146484374998 7.980907470703127 1.9001396484374997 Q 7.995157470703127 1.9402646484374997 8.021407470703128 1.9713896484374998 Q 8.047657470703127 2.0025146484375 8.084032470703127 2.0208896484374996 Q 8.120407470703126 2.0392646484375 8.163907470703126 2.0392646484375 Q 8.209657470703128 2.0392646484375 8.246032470703128 2.0201396484374996 Q 8.282407470703127 2.0010146484374998 8.308282470703126 1.9691396484374997 Q 8.334157470703127 1.9372646484374998 8.347657470703128 1.8975146484374998 Q 8.361157470703127 1.8577646484374997 8.361157470703127 1.8165146484374999 Q 8.361157470703127 1.7730146484374998 8.346907470703128 1.7332646484374998 Q 8.332657470703127 1.6935146484374997 8.306032470703126 1.6620146484374998 Q 8.279407470703127 1.6305146484374997 8.243407470703128 1.6125146484374997 Q 8.207407470703128 1.5945146484374997 8.163907470703126 1.5945146484374997 Q 8.118907470703126 1.5945146484374997 8.082532470703127 1.6132646484374997 Q 8.046157470703127 1.6320146484374998 8.020282470703128 1.6638896484374999 Q 7.994407470703127 1.6957646484374997 7.980532470703127 1.7355146484374997 Q 7.966657470703127 1.7752646484374996 7.966657470703127 1.8165146484374999 Z M 8.520139892578127 2.0827646484374998 L 8.520139892578127 1.5502646484374998 L 8.745139892578127 1.5502646484374998 Q 8.779639892578126 1.5502646484374998 8.808139892578126 1.5645146484374997 Q 8.836639892578127 1.5787646484374998 8.858014892578126 1.6031396484374998 Q 8.879389892578127 1.6275146484374998 8.891014892578127 1.6571396484374996 Q 8.902639892578126 1.6867646484374998 8.902639892578126 1.7175146484374997 Q 8.902639892578126 1.7557646484374998 8.888014892578127 1.7895146484374997 Q 8.873389892578126 1.8232646484374997 8.846764892578127 1.8465146484374997 Q 8.820139892578126 1.8697646484374997 8.784139892578127 1.8772646484374997 L 8.914639892578126 2.0827646484374998 L 8.855389892578126 2.0827646484374998 L 8.730139892578126 1.8862646484374999 L 8.572639892578126 1.8862646484374999 L 8.572639892578126 2.0827646484374998 L 8.520139892578127 2.0827646484374998 Z M 8.572639892578126 1.8397646484374999 L 8.746639892578127 1.8397646484374999 Q 8.778139892578126 1.8397646484374999 8.801389892578127 1.8225146484374997 Q 8.824639892578126 1.8052646484374997 8.837389892578127 1.7771396484374997 Q 8.850139892578127 1.7490146484374998 8.850139892578127 1.7175146484374997 Q 8.850139892578127 1.6852646484374998 8.835514892578127 1.6578896484374996 Q 8.820889892578126 1.6305146484374997 8.796514892578127 1.6136396484374997 Q 8.772139892578126 1.5967646484374998 8.742139892578127 1.5967646484374998 L 8.572639892578126 1.5967646484374998 L 8.572639892578126 1.8397646484374999 Z M 9.017355468750003 2.0827646484374998 L 9.017355468750003 1.5502646484374998 L 9.069855468750001 1.5502646484374998 L 9.069855468750001 2.0362646484374998 L 9.377355468750002 2.0362646484374998 L 9.377355468750002 2.0827646484374998 L 9.017355468750003 2.0827646484374998 Z M 9.462065551757815 2.0827646484374998 L 9.462065551757815 1.5502646484374998 L 9.642815551757815 1.5502646484374998 Q 9.727565551757815 1.5502646484374998 9.784190551757815 1.5858896484374998 Q 9.840815551757814 1.6215146484374998 9.869315551757815 1.6818896484374997 Q 9.897815551757814 1.7422646484374997 9.897815551757814 1.8157646484374999 Q 9.897815551757814 1.8967646484374998 9.866690551757815 1.9567646484374999 Q 9.835565551757815 2.0167646484375 9.778190551757815 2.0497646484375 Q 9.720815551757815 2.0827646484374998 9.642815551757815 2.0827646484374998 L 9.462065551757815 2.0827646484374998 Z M 9.845315551757814 1.8157646484374999 Q 9.845315551757814 1.7520146484374997 9.821690551757815 1.7025146484374998 Q 9.798065551757814 1.6530146484374997 9.753065551757814 1.6248896484374997 Q 9.708065551757814 1.5967646484374998 9.642815551757815 1.5967646484374998 L 9.514565551757814 1.5967646484374998 L 9.514565551757814 2.0362646484374998 L 9.642815551757815 2.0362646484374998 Q 9.708815551757814 2.0362646484374998 9.753815551757814 2.0070146484374995 Q 9.798815551757814 1.9777646484374998 9.822065551757815 1.9278896484374997 Q 9.845315551757814 1.8780146484374998 9.845315551757814 1.8157646484374999 Z" fill="#3361e1" fill-rule="nonzero"></path></g><g clip-path="url(&quot;#SvgjsClipPath1019&quot;)"><g clip-path="url(&quot;#SvgjsClipPath1008&quot;)"><path d=" M 7.467493460565436 -4.140645238798016 L 3.156426854843918 -4.140645238798016 L 1.4584305027641205 -1.1993600462912348 L 2.113861754919604 -0.25000000000000044 L 3.9872833329445214 -3.4942016168142938 L 5.890663678208643 -3.4942016168142938 L 4.565487540661167 -1.1993600462912348 L 5.7694971084856395 -1.1993600462912348 L 7.467493460565436 -4.140645238798016 Z" fill="url(#iconColor_0)" transform="matrix(1,0,0,1,0,0)" fill-rule="evenodd"></path></g><g clip-path="url(&quot;#SvgjsClipPath1008&quot;)"><path d=" M 2.4640464564267495 -0.25000000000000044 L 4.1620428085065475 -3.191285192506782 L 5.365719501139472 -3.191285192506782 L 4.040876238783543 -0.8964436219837233 L 5.944256584047665 -0.8964436219837233 L 7.817345286881036 -4.140645238798016 L 8.473109414228066 -3.191285192506782 L 6.77478018695672 -0.25000000000000044 L 2.4640464564267495 -0.25000000000000044 Z" fill="url(#iconColor_1)" transform="matrix(1,0,0,1,0,0)" fill-rule="evenodd"></path></g></g></g><defs><clipPath id="SvgjsClipPath1019"><path d=" M 1.4584305027641205 -4.140645238798016 h 7.014678911463945 v 3.890645238798016 h -7.014678911463945 Z"></path></clipPath><clipPath id="SvgjsClipPath1008"><path d=" M 1.4584305027641205 -4.140645238798016 L 8.473109414228066 -4.140645238798016 L 8.473109414228066 -0.25000000000000044 L 1.4584305027641205 -0.25000000000000044 Z"></path></clipPath><linearGradient id="iconColor_0" x1="0" x2="1" y1="0" y2="1"><stop stop-color="#3361e1" offset="0"></stop><stop stop-color="#040710" offset="1"></stop></linearGradient><linearGradient id="iconColor_1" x1="0" x2="1" y1="0" y2="1"><stop stop-color="#2f5ad1" offset="0"></stop><stop stop-color="#000000" offset="1"></stop></linearGradient></defs></svg>